<svg height="50" viewBox="0 0 50 50" width="50" xmlns="http://www.w3.org/2000/svg"><g fill="#fff" fill-rule="evenodd"><g fill-opacity=".795531"><path d="m2 13.294117c0 1.494419 1.211465 2.705883 2.705883 2.705883h8.117646c1.494418 0 2.705882-1.211464 2.705882-2.705883v-8.117645c0-1.494419-1.211464-2.705883-2.705882-2.705883h-8.117646c-1.494418 0-2.705883 1.211464-2.705883 2.705883z"/><path d="m18.235294 13.294117c0 1.494419 1.211464 2.705883 2.705883 2.705883h8.117646c1.494419 0 2.705883-1.211464 2.705883-2.705883v-8.117645c0-1.494419-1.211464-2.705883-2.705883-2.705883h-8.117646c-1.494419 0-2.705883 1.211464-2.705883 2.705883z"/><path d="m34.470589 13.294117c0 1.494419 1.211464 2.705883 2.705883 2.705883h8.117645c1.494419 0 2.705883-1.211464 2.705883-2.705883v-8.117645c0-1.494419-1.211464-2.705883-2.705883-2.705883h-8.117645c-1.494419 0-2.705883 1.211464-2.705883 2.705883z"/><path d="m2 29.294117c0 1.494419 1.211465 2.705883 2.705883 2.705883h8.117646c1.494418 0 2.705882-1.211464 2.705882-2.705883v-8.117647c0-1.494417-1.211464-2.705881-2.705882-2.705881h-8.117646c-1.494418 0-2.705883 1.211464-2.705883 2.705881z"/></g><path d="m32 27-5.035473.061695.035473 4.938305h-4v-5l-5 .061695v-4.061695h5v-5h4v5h5z"/><g fill-opacity=".795531"><path d="m34.470589 29.294117c0 1.494419 1.211464 2.705883 2.705883 2.705883h8.117645c1.494419 0 2.705883-1.211464 2.705883-2.705883v-8.117647c0-1.494417-1.211464-2.705881-2.705883-2.705881h-8.117645c-1.494419 0-2.705883 1.211464-2.705883 2.705881z"/><path d="m2 45.294117c0 1.494419 1.211465 2.705883 2.705883 2.705883h8.117646c1.494418 0 2.705882-1.211464 2.705882-2.705883v-8.117645c0-1.494419-1.211464-2.705883-2.705882-2.705883h-8.117646c-1.494418 0-2.705883 1.211464-2.705883 2.705883z"/><path d="m18.235294 45.294117c0 1.494419 1.211464 2.705883 2.705883 2.705883h8.117646c1.494419 0 2.705883-1.211464 2.705883-2.705883v-8.117645c0-1.494419-1.211464-2.705883-2.705883-2.705883h-8.117646c-1.494419 0-2.705883 1.211464-2.705883 2.705883z"/><path d="m34.470589 45.294117c0 1.494419 1.211464 2.705883 2.705883 2.705883h8.117645c1.494419 0 2.705883-1.211464 2.705883-2.705883v-8.117645c0-1.494419-1.211464-2.705883-2.705883-2.705883h-8.117645c-1.494419 0-2.705883 1.211464-2.705883 2.705883z"/></g></g></svg>