<svg fill="#fff" height="32" viewBox="0 0 32 32" width="32" xmlns="http://www.w3.org/2000/svg"><path d="m22.781 16c4.305-2.729 7.219-7.975 7.219-14 0-.677-.037-1.345-.109-2h-27.783c-.072.655-.109 1.323-.109 2 0 6.025 2.914 11.271 7.219 14-4.305 2.729-7.219 7.975-7.219 14 0 .677.037 1.345.109 2h27.783c.072-.655.109-1.323.109-2 0-6.025-2.914-11.271-7.219-14zm-17.781 14c0-5.841 2.505-10.794 7-12.428v-3.143c-4.495-1.634-7-6.587-7-12.428h22c0 5.841-2.505 10.794-7 12.428v3.143c4.495 1.634 7 6.587 7 12.428zm14.363-9.075c-2.239-1.27-2.363-2.918-2.363-3.918v-2.007c0-1 .119-2.654 2.367-3.927 1.203-.699 2.244-1.761 3.033-3.073h-12.799c.79 1.313 1.832 2.376 3.036 3.075 2.239 1.27 2.363 2.918 2.363 3.918v2.007c0 1-.119 2.654-2.367 3.927-2.269 1.318-3.961 3.928-4.472 7.073h15.677c-.511-3.147-2.204-5.758-4.475-7.075z"/></svg>