<svg height="300" viewBox="0 0 300 300" width="300" xmlns="http://www.w3.org/2000/svg"><g fill-rule="evenodd"><path d="m165.056015 89.986099 41.437775 45.541092h-32.062348z" fill="#831aad"/><path d="m190.461563 135.527191h-16.030121l-4.502304-21.873764c2.488815 10.35466 10.262253 18.704056 20.532425 21.873764z" fill="#6f0e96"/><path d="m203.364761 145.145035-.692428-2.079758c-.750061-2.253525-2.374802-4.112259-4.504959-5.160477-2.633606-1.294296-4.594239-3.645568-5.391251-6.469009-.246704-.874695-.027496-1.814621.583099-2.488586.612687-.672623 1.527024-.984009 2.42125-.823426 2.018188.363892 3.904373 1.253891 5.466232 2.580704.59848.506302 1.141464 1.074387 1.617371 1.694214 1.843368 2.386642 4.688736 3.781326 7.703644 3.77391l-.154725 6.391953z" fill="#d6491a"/><path d="m30.51609 286.690918h238.797753v-151.163727h-238.797753z" fill="#ddd"/><path d="m138.159683 86.387817-26.896637 3.598282-9.375419 45.541092h72.543815l-9.375427-45.541092z" fill="#490066"/><path d="m111.263046 89.986099-37.564018 39.562226c-19.730091 20.779037-13.532539 44.98349 7.463089 64.48172 8.520798 7.915512 38.064751-5.05481 34.677711-15.496659l-13.952201-43.006195z" fill="#831aad"/><path d="m75.910324 188.711136c1.628121 1.805893 3.379631 3.582733 5.251793 5.318909 8.520798 7.915512 38.064751-5.05481 34.677711-15.496659l-13.952201-43.006195 6.27597-30.484909-5.473915 10.539002c-4.431015 8.53189-11.378319 15.495056-19.899391 19.945907h4.209427c5.785301 0 10.93383 3.669312 12.819999 9.13826 4.6167 13.378021.454552 28.217362-10.445533 37.243607-4.010002 3.321319-8.622971 5.598327-13.46386 6.802078z" fill="#6f0e96"/><path d="m106.195274 181.789703 1.719262-1.293014c2.694343-2.125458 6.161369-3.009628 9.544715-2.436569 3.955109.669769 4.792321.044403 8.360276-1.23227 1.837272-.657592 2.964714 2.271241.412246 4.42096-1.701568 1.433044-3.702415.396179-6.219993 2.76564 4.396126 5.22966 11.338669 10.616165 14.720947 14.184067 1.126144 1.188461.174316 3.9039-2.36705 2.451385-2.625931-1.497436-5.222-3.821502-8.081085-6.141296l-.250374.30159 2.401947 2.962067c1.89727 2.33992-1.730339 4.158462-3.444626 2.566543-.127007 1.17099-1.36776 2.067856-2.518951 1.75885-2.330651-.622696-3.078026-1.606765-5.113694-3.816696l-.322738.164261.916992 2.137573c.666565 1.552368-2.141304 3.570053-4.312721.493317-.865723-1.225922-4.656571-6.403229-6.034333-8.052246-2.802826-3.35614-2.507576-8.179627.58918-11.234162z" fill="#f63"/><path d="m204.376282 124.272675-1.502198 2.949966c-1.786331 3.505371-3.042388 7.256348-3.730117 11.130112-.146836.833206.122024 1.687301.720504 2.285721.59787.598724 1.4525.867065 2.284409.71939.949173-.167938 1.833878-.591003 2.561188-1.224304l-.558289 2.504395c-.271484 1.223816-.308456 2.48967-.109314 3.727981.134674.841934.632767 1.579575 1.362717 2.020356.72731.438659 1.61467.535858 2.421753.261688 2.122803-.718872 3.787155-2.384262 4.507049-4.50705l.445847.834549c.386612.72255 1.05426 1.25206 1.843872 1.462555.792328.211823 1.634247.084763 2.329361-.348846 3.122131-1.953247 5.553421-4.833268 6.956284-8.237442l-.612687 2.56015c-.296844 1.243072-.593185 2.48648-.88948 3.729034-.159531.672669.101928 1.375427.662918 1.777649.563019.402466 1.310409.425995 1.89563.058655 3.428512-2.151367 5.792709-5.646408 6.512588-9.627655.259369-1.439636-.243973-2.910889-1.33258-3.886734-1.091263-.975571-2.608765-1.316254-4.008972-.900009-.608002-2.377671-2.899811-4.479904-7.013352-2.726303-1.557114-1.616486-5.155182-2.921387-7.678879-2.003922-.58522-5.562683-5.521194-5.597031-7.068252-2.559936z" fill="#f63"/><g fill="#004d81"><path d="m48.903118 269.038666h31.525974v-8.418854h-31.525974z"/><path d="m80.584328 238.518112h31.525703v30.520554c-10.508926 0-21.016777 0-31.525703 0 0-10.172943 0-20.345459 0-30.520554z"/><path d="m175.809326 194.703339h31.525711v74.335327c-10.508926 0-21.016784 0-31.525711 0 0-24.777039 0-49.553009 0-74.335327z"/><path d="m112.271439 216.418549h31.526245v52.620117c-10.508927 0-21.017304 0-31.526245 0 0-17.540192 0-35.079926 0-52.620117z"/><path d="m144.067902 225.515259h31.524688v43.523407c-10.508926 0-21.017852 0-31.524688 0 0-14.508408 0-29.01529 0-43.523407z"/><path d="m207.458984 269.038666h31.524674v-49.573746l-2.837937-8.291214-3.697418 8.291214-4.033569-3.585373-3.955628 3.585373-4.223526-6.274429-4.929916 2.913131-3.473343-7.506912-4.373337 10.86821z"/></g><path d="m126.021263 65.638275 4.798653 8.610657c2.701965 4.850082-.020081 10.933014-6.367119 13.972748l13.754158 14.155319 11.82518-14.40065c-2.289719-1.588532-2.817932-6.322174 1.440109-8.943863z" fill="#d6491a"/><path d="m121.313484 47.271179c3.860565 0 7.805886 3.362229 8.813683 7.510391 1.006454 4.147889-1.305435 7.510071-5.166008 7.510071-3.860558 0-7.807175-3.362182-8.813683-7.510071-1.006439-4.148162 1.305451-7.510391 5.166008-7.510391zm44.28553 0c-3.861603 0-7.805618 3.362229-8.815002 7.510391-1.006226 4.147889 1.305664 7.510071 5.167312 7.510071 3.859467 0 7.806138-3.362182 8.812333-7.510071 1.006759-4.148162-1.305664-7.510391-5.164643-7.510391z" fill="#d6491a"/><path d="m143.455322 32.344208c24.099564 0 21.52092 16.740021 21.52092 30.309829 0 13.570038-17.48024 18.829514-21.52092 18.829514-4.039856 0-21.518814-5.259476-21.518814-18.829514 0-13.569808-2.578644-30.309829 21.518814-30.309829z" fill="#f63"/><path d="m150.084396 72.164642c-1.086227 3.224655-5.499252 4.510254-6.629074 4.510254-1.128738 0-5.543625-1.285599-6.62857-4.510254z" fill="#fff"/><path d="m165.043365 57.176117 4.509705-7.465729c2.555878-4.229492 2.847473-9.450165.776962-13.936096-2.070007-4.485962-6.233184-7.651947-11.109512-8.451874l-.956528-3.443817c-1.350616-4.86383-5.177368-8.649719-10.05545-9.947723-4.878922-1.298035-10.080032.083984-13.670166 3.633178l-5.358002 1.148011c-10.284683 2.203643-17.128731 11.968322-15.691261 22.387756.793617 5.750931 3.805611 12.401947 8.378708 15.978348l2.584976-13.300186 6.449211.574432c9.816467.873901 19.680725-.979828 28.510803-5.357178 2.830048 6.09401 5.585663 11.167252 5.630554 18.180878z" fill="#630"/><path d="m171.687988 42.599579c.092438-2.316376-.358642-4.657044-1.357956-6.825287-1.803802-3.905426-5.189483-6.809967-9.252868-8.023773-.922226 3.232574-.41626 6.769348 1.502166 9.657501 2.070496 3.112366 5.471009 5.002228 9.108658 5.191559z" fill="#854607"/><path d="m157.551453 21.893646c-1.736679-3.894897-5.149887-6.847229-9.342911-7.962768-4.878922-1.298035-10.080032.083984-13.670166 3.633178l-5.358002 1.148011c-8.102211 1.736419-14.068115 8.1651-15.533058 15.90921.135704.061767.271461.122772.408508.181946 5.387879 2.323272 11.503281 2.280212 16.857277-.120179l3.062241-1.373535c5.384079 1.750946 11.270035.996643 16.036957-2.05545 3.497955-2.238526 6.12413-5.540528 7.539154-9.360413z" fill="#854607"/><path d="m140.972565 65.638275h.280182c.406189 0 .769867.248551.918289.625427.204117.521302.726257.84639 1.284286.800476.559372.045914 1.081192-.279174 1.285584-.800476.148208-.376876.5121-.625427.916992-.625427h.280182c.356247 0 .614044.393829.640167.759293.026459.364959-.186706.705169-.526855.841415-.33989.135773-.728653.036728-.961564-.245331l-.06871-.081634c-.383713.287857-.851959.444229-1.331543.444229h-.234253-.23294c-.480896 0-.948105-.156372-1.332871-.444229l-.067352.081634c-.232941.282059-.621659.381104-.961594.245331-.340164-.136246-.553253-.476456-.528168-.841415.026124-.365464.285202-.759293.640168-.759293z" fill="#d6491a"/><path d="m148.178391 48.395432v3.914703h1.91101c2.558869 0 5.11528.198608 7.643753.59555l.969223-2.255355c-2.596069-1.478165-5.530655-2.254898-8.518142-2.254898z" fill="#630"/><path d="m152.052704 60.379379c1.554718 0 2.822906-1.289337 2.822906-2.870712 0-1.581482-1.268188-2.870758-2.822906-2.870758-1.552078 0-2.820313 1.289276-2.820313 2.870758 0 1.581375 1.268235 2.870712 2.820313 2.870712z" fill="#1a1a1a"/><path d="m138.732773 48.395432v3.914703h-1.911057c-2.558792 0-5.115005.198608-7.642624.59555l-.970337-2.255355c2.59607-1.478165 5.530991-2.254898 8.519501-2.254898z" fill="#630"/><path d="m134.857117 60.379379c1.554748 0 2.822952-1.289337 2.822952-2.870712 0-1.581482-1.268204-2.870758-2.822952-2.870758-1.55336 0-2.82161 1.289276-2.82161 2.870758 0 1.581375 1.26825 2.870712 2.82161 2.870712z" fill="#1a1a1a"/><path d="m141.114655 54.794785h4.682693c.498352-1.433793 1.416855-2.674012 2.607956-3.570343 1.268173-.95366 2.842697-1.519822 4.549316-1.519822 2.090546 0 3.984131.848511 5.354264 2.218628 1.370147 1.370407 2.220001 3.264511 2.220001 5.356125 0 2.091644-.849854 3.985779-2.220001 5.356156-1.370133 1.370163-3.263718 2.218658-5.354264 2.218658-2.092743 0-3.986282-.848495-5.356674-2.218658-1.370941-1.370377-2.217895-3.264512-2.217895-5.356156 0-.352005.024826-.705612.074752-1.057678l.054627-.342514h-4.105896c.084808.453949.128357.921966.128357 1.400192 0 2.091644-.847214 3.985779-2.217362 5.356156-1.371704 1.370163-3.264999 2.218658-5.356659 2.218658-2.091644 0-3.985183-.848495-5.355575-2.218658-1.370133-1.370377-2.218437-3.264512-2.218437-5.356156 0-2.091614.848304-3.985718 2.218437-5.356125 1.370392-1.370117 3.263931-2.218628 5.355575-2.218628 2.09166 0 3.984955.848511 5.356659 2.218628.799744.800492 1.421402 1.778977 1.800126 2.871537zm-2.567566-2.104035c-1.174698-1.174164-2.797852-1.900986-4.589219-1.900986-1.791351 0-3.414489.726822-4.58815 1.900986-1.174697 1.174179-1.900932 2.796784-1.900932 4.588623 0 1.791901.726235 3.414505 1.900932 4.588684 1.173661 1.174179 2.796799 1.900986 4.58815 1.900986 1.791367 0 3.414521-.726807 4.589219-1.900986 1.173645-1.174179 1.90094-2.796783 1.90094-4.588684 0-1.791839-.727295-3.414444-1.90094-4.588623zm18.994369 0c-1.173691-1.174164-2.795212-1.900986-4.586838-1.900986-1.464965 0-2.817672.483811-3.901519 1.299363-1.108674.834533-1.943497 2.021118-2.337799 3.392547-.083451.294251-.148133.590531-.189347.888443-.040909.290756-.062317.594208-.062317.909256 0 1.791901.728379 3.414505 1.901734 4.588684 1.173416 1.174179 2.797882 1.900986 4.589248 1.900986 1.791626 0 3.413147-.726807 4.586838-1.900986 1.17627-1.174179 1.900925-2.796783 1.900925-4.588684 0-1.791839-.724655-3.414444-1.900925-4.588623z" fill="#fff"/></g></svg>