<?xml version="1.0" encoding="UTF-8"?>
<!-- Generated by Pixelmator Pro 3.7.1 -->
<svg width="50" height="50" viewBox="0 0 50 50" xmlns="http://www.w3.org/2000/svg">
    <g id="Group"/>
    <g id="g1">
        <path id="Rounded-Rectangle-copy" fill="#ffffff" fill-opacity="0.795531" fill-rule="evenodd" stroke="none" d="M 2 45.294117 C 2 46.788536 3.211465 48 4.705882 48 L 12.294118 48 C 13.788535 48 15 46.788536 15 45.294117 L 15 37.705883 C 15 36.211464 13.788535 35 12.294118 35 L 4.705882 35 C 3.211465 35 2 36.211464 2 37.705883 Z"/>
        <path id="Rounded-Rectangle-copy-2" fill="#ffffff" fill-opacity="0.795531" fill-rule="evenodd" stroke="none" d="M 18 45.294117 C 18 46.788536 19.211464 48 20.705883 48 L 28.294117 48 C 29.788536 48 31 46.788536 31 45.294117 L 31 37.705883 C 31 36.211464 29.788536 35 28.294117 35 L 20.705883 35 C 19.211464 35 18 36.211464 18 37.705883 Z"/>
        <path id="Rounded-Rectangle-copy-3" fill="#ffffff" fill-opacity="0.795531" fill-rule="evenodd" stroke="none" d="M 34 45.294117 C 34 46.788536 35.211464 48 36.705883 48 L 44.294117 48 C 45.788536 48 47 46.788536 47 45.294117 L 47 37.705883 C 47 36.211464 45.788536 35 44.294117 35 L 36.705883 35 C 35.211464 35 34 36.211464 34 37.705883 Z"/>
    </g>
    <g id="Group-copy">
        <path id="path1" fill="#ffffff" fill-opacity="0.795531" fill-rule="evenodd" stroke="none" d="M 2 29.294117 C 2 30.788536 3.211465 32 4.705882 32 L 12.294118 32 C 13.788535 32 15 30.788536 15 29.294117 L 15 21.705883 C 15 20.211464 13.788535 19 12.294118 19 L 4.705882 19 C 3.211465 19 2 20.211464 2 21.705883 Z"/>
        <path id="path2" fill="#ffffff" fill-opacity="0.795531" fill-rule="evenodd" stroke="none" d="M 18 29.294117 C 18 30.788536 19.211464 32 20.705883 32 L 28.294117 32 C 29.788536 32 31 30.788536 31 29.294117 L 31 21.705883 C 31 20.211464 29.788536 19 28.294117 19 L 20.705883 19 C 19.211464 19 18 20.211464 18 21.705883 Z"/>
        <path id="path3" fill="#ffffff" fill-opacity="0.795531" fill-rule="evenodd" stroke="none" d="M 34 29.294117 C 34 30.788536 35.211464 32 36.705883 32 L 44.294117 32 C 45.788536 32 47 30.788536 47 29.294117 L 47 21.705883 C 47 20.211464 45.788536 19 44.294117 19 L 36.705883 19 C 35.211464 19 34 20.211464 34 21.705883 Z"/>
    </g>
    <g id="Group-copy-2">
        <path id="path4" fill="#ffffff" fill-opacity="0.795531" fill-rule="evenodd" stroke="none" d="M 2 13.294117 C 2 14.788536 3.211465 16 4.705882 16 L 12.294118 16 C 13.788535 16 15 14.788536 15 13.294117 L 15 5.705883 C 15 4.211464 13.788535 3 12.294118 3 L 4.705882 3 C 3.211465 3 2 4.211464 2 5.705883 Z"/>
        <path id="path5" fill="#ffffff" fill-opacity="0.795531" fill-rule="evenodd" stroke="none" d="M 18 13.294117 C 18 14.788536 19.211464 16 20.705883 16 L 28.294117 16 C 29.788536 16 31 14.788536 31 13.294117 L 31 5.705883 C 31 4.211464 29.788536 3 28.294117 3 L 20.705883 3 C 19.211464 3 18 4.211464 18 5.705883 Z"/>
        <path id="path6" fill="#ffffff" fill-opacity="0.795531" fill-rule="evenodd" stroke="none" d="M 34 13.294117 C 34 14.788536 35.211464 16 36.705883 16 L 44.294117 16 C 45.788536 16 47 14.788536 47 13.294117 L 47 5.705883 C 47 4.211464 45.788536 3 44.294117 3 L 36.705883 3 C 35.211464 3 34 4.211464 34 5.705883 Z"/>
    </g>
</svg>
