<svg height="50" viewBox="0 0 50 50" width="50" xmlns="http://www.w3.org/2000/svg"><g fill="#fff" fill-rule="evenodd"><path d="m1 16.619049c0 1.262364 1.023349 2.285713 2.285714 2.285713h9.904762c1.262366 0 2.285715-1.023349 2.285715-2.285713v-5.333336c0-1.262363-1.023349-2.285713-2.285715-2.285713h-9.904762c-1.262365 0-2.285714 1.02335-2.285714 2.285713z"/><path d="m17.761906 16.619049c0 1.262364 1.023348 2.285713 2.285713 2.285713h9.904762c1.262365 0 2.285713-1.023349 2.285713-2.285713v-5.333336c0-1.262363-1.023348-2.285713-2.285713-2.285713h-9.904762c-1.262365 0-2.285713 1.02335-2.285713 2.285713z"/><path d="m1 28.809525c0 1.262365 1.023349 2.285713 2.285714 2.285713h9.904762c1.262366 0 2.285715-1.023348 2.285715-2.285713v-5.333334c0-1.262366-1.023349-2.285716-2.285715-2.285716h-9.904762c-1.262365 0-2.285714 1.02335-2.285714 2.285716z"/><path d="m17.761906 28.809525c0 1.262365 1.023348 2.285713 2.285713 2.285713h9.904762c1.262365 0 2.285713-1.023348 2.285713-2.285713v-5.333334c0-1.262366-1.023348-2.285716-2.285713-2.285716h-9.904762c-1.262365 0-2.285713 1.02335-2.285713 2.285716z"/><path d="m1 41c0 1.262367 1.023349 2.285713 2.285714 2.285713h9.904762c1.262366 0 2.285715-1.023346 2.285715-2.285713v-5.333332c0-1.262367-1.023349-2.285717-2.285715-2.285717h-9.904762c-1.262365 0-2.285714 1.02335-2.285714 2.285717z"/><path d="m17.761906 41c0 1.262367 1.023348 2.285713 2.285713 2.285713h9.904762c1.262365 0 2.285713-1.023346 2.285713-2.285713v-5.333332c0-1.262367-1.023348-2.285717-2.285713-2.285717h-9.904762c-1.262365 0-2.285713 1.02335-2.285713 2.285717z"/><path d="m34.523811 16.619049c0 1.262364 1.023346 2.285713 2.285714 2.285713h9.904762c1.262363 0 2.285713-1.023349 2.285713-2.285713v-5.333336c0-1.262363-1.02335-2.285713-2.285713-2.285713h-9.904762c-1.262368 0-2.285714 1.02335-2.285714 2.285713z"/><path d="m34.523811 28.809525c0 1.262365 1.023346 2.285713 2.285714 2.285713h9.904762c1.262363 0 2.285713-1.023348 2.285713-2.285713v-5.333334c0-1.262366-1.02335-2.285716-2.285713-2.285716h-9.904762c-1.262368 0-2.285714 1.02335-2.285714 2.285716z"/><path d="m34.523811 41c0 1.262367 1.023346 2.285713 2.285714 2.285713h9.904762c1.262363 0 2.285713-1.023346 2.285713-2.285713v-5.333332c0-1.262367-1.02335-2.285717-2.285713-2.285717h-9.904762c-1.262368 0-2.285714 1.02335-2.285714 2.285717z"/></g></svg>