<svg fill="#fff" height="32" viewBox="0 0 32 32" width="32" xmlns="http://www.w3.org/2000/svg"><path d="m32.047 25c0-9-8-7-8-14 0-.58-.056-1.076-.158-1.498-.526-3.532-2.88-6.366-5.93-7.23.027-.123.041-.251.041-.382 0-1.04-.9-1.891-2-1.891s-2 .851-2 1.891c0 .131.014.258.041.382-3.421.969-5.966 4.416-6.039 8.545-.001.06-.002.121-.002.183 0 7-8 5-8 14 0 2.382 5.331 4.375 12.468 4.878.673 1.263 2.002 2.122 3.532 2.122s2.86-.86 3.532-2.122c7.137-.503 12.468-2.495 12.468-4.878 0-.007-.001-.014-.001-.021zm-6.227 1.691c-1.695.452-3.692.777-5.837.958-.178-2.044-1.893-3.648-3.984-3.648s-3.805 1.604-3.984 3.648c-2.144-.18-4.142-.506-5.837-.958-2.332-.622-3.447-1.318-3.855-1.691.408-.372 1.523-1.068 3.855-1.691 2.712-.724 6.199-1.122 9.82-1.122s7.109.398 9.82 1.122c2.332.622 3.447 1.318 3.855 1.691-.408.372-1.523 1.068-3.855 1.691z"/></svg>