<svg height="1341" viewBox="0 0 1291 1341" width="1291" xmlns="http://www.w3.org/2000/svg"><g fill="#fff" fill-rule="evenodd"><path d="m644 294h-447c32.841187 209.261169 44.265015 362.739624 69.228333 521.752441 22.058349 140.462525 41.658752 265.360352 59.212463 377.087525h636.018799c17.578247-111.909912 37.190796-236.80835 59.228637-377.180847 24.947144-158.919495 34.446412-312.3042 67.311768-521.659119zm-265.841248 116.764099h-102.176696c19.561706 149.463074 37.102966 283.719666 52.943786 404.988342 14.394165 110.25 27.577942 210.742676 39.626282 302.726319h76.491211c-8.69165-92.073364-18.18042-192.488404-28.597046-302.726319-11.46875-121.280761-24.163757-255.525268-38.287537-404.988342zm210.797059.089295h-102.091248c8.329224 149.275695 15.800049 283.630371 22.527954 404.899047 6.119995 110.237915 11.757446 210.652955 16.894592 302.726319h76.424195c-1.778321-92.073364-3.735474-192.577881-5.877564-302.726319-2.358276-121.280761-4.97876-255.623352-7.877929-404.899047zm210.793335 0h-102.09375c-2.874512 149.275695-5.462525 283.630371-7.798218 404.899047-2.119629 110.148438-4.056763 210.652955-5.840943 302.624634h76.295777c5.127075-92.065429 10.673095-192.476196 16.841797-302.624634 6.779052-121.280761 14.290405-255.623352 22.595337-404.899047zm210.880371.093689h-102.177002c-14.099121 149.369201-26.757569 283.524597-38.203858 404.805358-10.388305 110.148438-19.872925 210.559205-28.564575 302.624634h76.359253c12.036255-92.065429 25.14624-192.569946 39.571167-302.624634 15.901733-121.280761 33.483765-255.436157 53.015015-404.805358z"/><path d="m486.864563 410.853394h102.091248c2.899169 149.275695 5.519653 283.618286 7.877929 404.899047 2.14209 110.148438 4.099243 210.652955 5.877564 302.726319-25.518799 0-50.972534 0-76.424195 0-5.137146-92.073364-10.774597-192.488404-16.894592-302.726319-6.727905-121.268676-14.19873-255.623352-22.527954-404.899047zm-210.882507-.089295h102.176696c14.12378 149.463074 26.818787 283.707581 38.287537 404.988342 10.416626 110.237915 19.905396 210.652955 28.597046 302.726319-25.580017 0-51.037903 0-76.491211 0-12.04834-91.983643-25.232117-192.476319-39.626282-302.726319-15.84082-121.268676-33.38208-255.525268-52.943786-404.988342zm421.67334.089295h102.09375c-8.304932 149.275695-15.816285 283.618286-22.595337 404.899047-6.168702 110.148438-11.714722 210.559205-16.841797 302.624634-25.45166 0-50.903321 0-76.295777 0 1.78418-91.971679 3.721314-192.476196 5.840943-302.624634 2.335693-121.268676 4.923706-255.623352 7.798218-404.899047zm210.797119.093689h102.177002c-19.53125 149.369201-37.113282 283.524597-53.015015 404.805358-14.424927 110.054688-27.534912 210.559205-39.571167 302.624634-25.520874 0-50.972534 0-76.359253 0 8.69165-92.065429 18.17627-192.476196 28.564575-302.624634 11.446289-121.280761 24.104737-255.436157 38.203858-404.805358z" fill-opacity=".795531"/><path d="m208.330444 171.650879h870.235474c33.683228 0 61.242432 27.557007 61.242432 61.240356 0 33.6792-27.559204 61.240723-61.242432 61.240723h-870.235474c-33.679199 0-61.236267-27.561523-61.236267-61.240723 0-33.683349 27.557068-61.240356 61.236267-61.240356z" fill-opacity=".789517"/></g></svg>