<svg height="864" viewBox="0 0 432 864" width="432" xmlns="http://www.w3.org/2000/svg" xmlns:xlink="http://www.w3.org/1999/xlink"><linearGradient id="a" gradientUnits="userSpaceOnUse" x1="170.790024" x2="178.179174" y1="-.000231" y2="862.810854"><stop offset=".00001" stop-color="#152f48"/><stop offset="1" stop-color="#28557e"/></linearGradient><linearGradient id="b" gradientUnits="userSpaceOnUse" x1="-92.398963" x2="431.944321" y1="790.846991" y2="796.035996"><stop offset=".00001" stop-color="#7f8954"/><stop offset="1" stop-color="#879755"/></linearGradient><path d="m-92.399712 0h524.34478v862.811096h-524.34478z" fill="url(#a)" stroke="#fff" stroke-linecap="round" stroke-linejoin="round" stroke-width=".377953"/><g fill="#fff" opacity=".280255"><path d="m366.998627 42.836121c0 1.15393-1.033905 2.089416-2.309357 2.089416s-2.309387-.935486-2.309387-2.089416c0-1.153931 1.033935-2.089417 2.309387-2.089417s2.309357.935486 2.309357 2.089417z"/><path d="m366.998627 42.836121c0 1.15393-1.033905 2.089416-2.309357 2.089416s-2.309387-.935486-2.309387-2.089416c0-1.153931 1.033935-2.089417 2.309387-2.089417s2.309357.935486 2.309357 2.089417z"/><path d="m395.150848 83.304871c0 1.15393-1.033905 2.089416-2.309356 2.089416-1.275391 0-2.309388-.935486-2.309388-2.089416 0-1.153931 1.033997-2.089417 2.309388-2.089417 1.275451 0 2.309356.935486 2.309356 2.089417z"/><path d="m275.063965 101.119934c0 1.153992-1.033936 2.089417-2.309357 2.089417s-2.309387-.935425-2.309387-2.089417c0-1.153931 1.033966-2.089416 2.309387-2.089416s2.309357.935485 2.309357 2.089416z"/><path d="m275.063965 101.119934c0 1.153992-1.033936 2.089417-2.309357 2.089417s-2.309387-.935425-2.309387-2.089417c0-1.153931 1.033966-2.089416 2.309387-2.089416s2.309357.935485 2.309357 2.089416z"/><path d="m368.758118 183.8172c0 1.15393-1.033905 2.089416-2.309357 2.089416s-2.309387-.935486-2.309387-2.089416c0-1.153931 1.033935-2.089417 2.309387-2.089417s2.309357.935486 2.309357 2.089417z"/><path d="m264.067017 131.471558c0 1.15393-1.033936 2.089416-2.309357 2.089416-1.275452 0-2.309387-.935486-2.309387-2.089416 0-1.153931 1.033935-2.089417 2.309387-2.089417 1.275421 0 2.309357.935486 2.309357 2.089417z"/><path d="m390.312195 171.500549c0 1.154053-1.033905 2.089417-2.309357 2.089417s-2.309387-.935364-2.309387-2.089417c0-1.15393 1.033935-2.089416 2.309387-2.089416s2.309357.935486 2.309357 2.089416z"/><path d="m253.509918 232.643738c0 1.153991-1.033935 2.089416-2.309356 2.089416-1.275422 0-2.309357-.935425-2.309357-2.089416 0-1.153931 1.033935-2.089417 2.309357-2.089417 1.275421 0 2.309356.935486 2.309356 2.089417z"/><path d="m214.360718 152.585815c0 1.153931-1.033966 2.089417-2.309387 2.089417-1.275422 0-2.309357-.935486-2.309357-2.089417 0-1.153991 1.033935-2.089416 2.309357-2.089416 1.275421 0 2.309387.935425 2.309387 2.089416z"/><path d="m204.68338 167.981567c0 1.153931-1.033935 2.089417-2.309357 2.089417-1.275421 0-2.309387-.935486-2.309387-2.089417 0-1.15393 1.033966-2.089416 2.309387-2.089416 1.275422 0 2.309357.935486 2.309357 2.089416z"/><path d="m246.471863 99.800354c0 1.153931-1.033905 2.089417-2.309326 2.089417-1.275452 0-2.309388-.935486-2.309388-2.089417 0-1.153992 1.033936-2.089416 2.309388-2.089416 1.275421 0 2.309326.935424 2.309326 2.089416z"/><path d="m153.217606 94.52179c0 1.153991-1.033951 2.089477-2.309372 2.089477s-2.309342-.935486-2.309342-2.089477c0-1.153931 1.033921-2.089417 2.309342-2.089417s2.309372.935486 2.309372 2.089417z"/><path d="m219.639221 24.581055c0 1.15393-1.033935 2.089416-2.309356 2.089416-1.275422 0-2.309357-.935486-2.309357-2.089416 0-1.153931 1.033935-2.089417 2.309357-2.089417 1.275421 0 2.309356.935486 2.309356 2.089417z"/><path d="m132.467819 61.970764c0 1.153931-1.033935 2.089417-2.309356 2.089417-1.275422 0-2.309372-.935486-2.309372-2.089417s1.03395-2.089416 2.309372-2.089416c1.275421 0 2.309356.935485 2.309356 2.089416z"/><path d="m59.684143 77.522827c0 1.153931-1.033935 2.089417-2.309357 2.089417-1.275421 0-2.309372-.935486-2.309372-2.089417s1.033951-2.089416 2.309372-2.089416c1.275422 0 2.309357.935485 2.309357 2.089416z"/><path d="m56.573715 60.104492c0 1.153931-1.033935 2.089417-2.309356 2.089417-1.275422 0-2.309372-.935486-2.309372-2.089417 0-1.15393 1.03395-2.089416 2.309372-2.089416 1.275421 0 2.309356.935486 2.309356 2.089416z"/><path d="m20.49295 170.835144c0 1.153992-1.033943 2.089417-2.309364 2.089417s-2.309364-.935425-2.309364-2.089417c0-1.153931 1.033943-2.089416 2.309364-2.089416s2.309364.935485 2.309364 2.089416z"/><path d="m20.49295 170.213074c0 1.15393-1.033943 2.089416-2.309364 2.089416s-2.309364-.935486-2.309364-2.089416c0-1.153992 1.033943-2.089417 2.309364-2.089417s2.309364.935425 2.309364 2.089417z"/><path d="m162.894867 168.861328c0 1.153931-1.03392 2.089417-2.309357 2.089417-1.275421 0-2.309372-.935486-2.309372-2.089417s1.033951-2.089416 2.309372-2.089416c1.275437 0 2.309357.935485 2.309357 2.089416z"/><path d="m162.894867 168.861328c0 1.153931-1.03392 2.089417-2.309357 2.089417-1.275421 0-2.309372-.935486-2.309372-2.089417s1.033951-2.089416 2.309372-2.089416c1.275437 0 2.309357.935485 2.309357 2.089416z"/><path d="m396.47049 52.733459c0 1.153931-1.033936 2.089417-2.309388 2.089417-1.275451 0-2.309356-.935486-2.309356-2.089417 0-1.153991 1.033905-2.089477 2.309356-2.089477 1.275452 0 2.309388.935486 2.309388 2.089477z"/><path d="m363.919403 65.929749c0 1.15393-1.033905 2.089416-2.309357 2.089416-1.275421 0-2.309387-.935486-2.309387-2.089416 0-1.153992 1.033966-2.089417 2.309387-2.089417 1.275452 0 2.309357.935425 2.309357 2.089417z"/></g><path d="m281.072968 748.408081 150.871368 17.420532v96.98169h-524.343308v-97.352417l23.780823-.185547z" fill="url(#b)"/><path d="m111.377838 769.733093 14.295258 14.944031 35.007003 17.242249 14.891037-26.385865-29.152908-7.646911z" fill="#6c7d53"/><path d="m-68.618828 765.585632 8.128079 23.645325 18.842361-2.955688 7.019714 10.714355 29.566456-19.622681 9.226647.410828-7.758629 19.950684 4.064049 5.541931 28.078804-4.433533 9.975364-5.172424 46.117981-26.649842-69.024368-27.660461-63.568581 20.245422z" fill="#506850"/><path d="m-25.814827 752.302124 13.065193-24.478577 33.595574-53.27301 43.674232-46.073913 16.797775 53.27301 17.277726 28.316284 12.782165 59.667175-114.777496.983582z" fill="#320d40"/><path d="m20.84594 674.550537 31.606315-76.082031 12.067917 30.008118z" fill="#898795"/><path d="m52.452255 598.468506 33.766983-19.343872 28.506775 89.762451-50.205841-40.410461z" fill="#bab8c5"/><path d="m86.219238 579.124634 30.543 40.893677 13.744323 25.452453-15.780548 23.416321z" fill="#ffffd7"/><path d="m114.726013 668.887085 19.683258 18.834778 17.477387 73.642578-37.160645-38.178772-16.13034-13.119751-17.277726-28.316284-16.797775-53.27301z" fill="none"/><path d="m151.886658 761.364441-5.46843 6.522156-23.354431 4.520263-11.685959-2.673767-12.782165-59.667175 16.13034 13.119751z" fill="#4b1b43"/><path d="m114.726013 668.887085 15.780548-23.416321 22.228516 47.68103 23.585968 20.531678-7.301758 30.095337-11.300506 9.040466-5.832123 8.545166-17.477387-73.642578z" fill="#662044"/><path d="m135.851578 656.669922 19.598419-10.011353 14.932114 6.278321-26.979615 20.192199z" fill="none"/><path d="m170.382111 652.93689-8.653809 48.020324-8.993225-7.80542-9.332581-20.022705z" fill="#391342"/><path d="m176.321045 713.683472 8.993195-8.993286-14.932129-51.753296-8.653809 48.020324z" fill="#4d1b41"/><path d="m170.382111 652.93689 25.113098 33.766845-10.180969 17.986451z" fill="#5f2141"/><path d="m195.495209 686.703735 16.968353 2.121094-27.149322 15.865357z" fill="#381444"/><path d="m212.463562 688.824829 22.852203 38.379883-26.36792 11.300537-23.633605-33.815063z" fill="#3c1742"/><path d="m176.321045 713.683472 8.993195-8.993286 23.633605 33.815063-8.287048 9.793762z" fill="#632244"/><path d="m169.019287 743.778809 7.301758-30.095337 24.339752 34.615539z" fill="#571d43"/><path d="m131.948853 648.10083 23.501144-1.442261-19.598419 10.011353z" fill="#fedad1"/><path d="m151.886658 761.364441 23.684478 14.169067-29.152908-7.646911z" fill="#7a8953"/><path d="m180.404175 762.209961 13.323608-.653137 6.933014-13.257813-31.64151-4.520202z" fill="#8c9552"/><path d="m180.404175 762.209961.261169 7.837341-5.094299 5.486206-23.684509-14.169067 5.832122-8.545166 11.300538-9.040466z" fill="#9a9e54"/><path d="m180.404175 762.209961 13.323608-.653137 18.417877-4.179932 10.972321 5.878052 12.017334 4.049316h-15.152283l-30.304565 7.576111-9.013123-4.833069z" fill="#607c54"/><path d="m200.660797 748.299011 11.484863 9.077881-18.417877 4.179932z" fill="#748455"/><path d="m208.947845 738.505249 19.39502 23.965942 6.79245 4.833069-12.017334-4.049316-10.972321-5.878052-11.484863-9.077881z" fill="#9d9f54"/><path d="m208.947845 738.505249 26.36792-11.300537-4.752258 8.227478-2.220642 27.039001z" fill="#677d53"/><path d="m219.983032 767.30426-6.400543 18.156616-23.904022-10.580505z" fill="#738458"/><path d="m180.665344 770.047302 9.013123 4.833069 23.904022 10.580505-8.490479 10.319153-29.520874-20.246521z" fill="#979b58"/><path d="m175.571014 775.533508 29.520996 20.246521-15.152282 15.282959-29.259629-9.143615z" fill="#7f8e57"/><path d="m235.315765 727.204712 9.181153 16.859985 8.867004 18.934693 1.754913 6.650207-19.98352-2.345337-6.79245-4.833069 2.220642-27.039001z" fill="#7b8956"/><path d="m235.315765 727.204712 27.121277 9.793762 13.560669 9.040466 5.075562 2.736329-.092224 23.091186-25.862091-2.216858-1.754914-6.650207z" fill="#989b56"/><path d="m64.520172 628.476624 16.797775 53.27301 17.277726 28.316284 53.290985 51.298523-17.477387-73.642578-19.683258-18.834778z" fill="#3b1641"/><path d="m135.851578 656.669922 19.598419-10.011353 14.932114 6.278321-26.979615 20.192199z" fill="#bebdc5"/><path d="m245.939484 737.956299-3.3844 6.332031 3.831757-2.543152z" fill="#2d4042"/><path d="m242.555084 744.28833 3.348603 5.38739.820404 5.131409 2.795867-.897461 5.117646-11.856934-8.248993-.307678z" fill="#282f3f"/><path d="m245.939484 737.956299 4.259491-3.267029 10.726135 1.970764-6.287506 5.3927-8.250763-.307678z" fill="#445d4c"/><path d="m254.637604 742.052734 4.873321 3.191773 1.414185-8.584412z" fill="#55664f"/><path d="m254.637604 742.052734 4.873321 3.191773 1.302368 7.718017-3.69049 2.143677-7.604645-1.196533z" fill="#324043"/><path d="m251.455383 755.302368-1.502472 15.652039h6.00998l-1.502503-15.722534z" fill="#431b40"/><path d="m246.722321 754.807129 5.749328 1.990539 4.651154-1.691467-7.604645-1.196533z" fill="#2d2a3d"/><path d="m260.92511 736.660095 3.706146 7.886353-.015106 4.577209-3.802368 3.838867-1.302857-7.718017z" fill="#52624f"/><path d="m242.555084 744.28833.510193 6.980774 3.658814 3.538025-.820404-5.131409z" fill="#232134"/><path d="m306.917725 738.446289-3.695679 5.312378 3.755707-1.995422z" fill="#2d4042"/><path d="m303.222046 743.758667 2.577454 4.868225.278533 4.504334 2.651612-.623352 5.799682-10.015748-7.549774-.72882z" fill="#282f3f"/><path d="m306.917725 738.446289 4.215759-2.60022 9.671539 2.312317-6.275757 4.33374-7.551452-.728881z" fill="#445d4c"/><path d="m314.529266 742.492126 4.181488 3.045838 2.094208-7.379578z" fill="#55664f"/><path d="m314.310181 752.219116 5.352539 9.071045-1.136383 18.340637 5.596832-.102111-.882599-17.775513 5.505798-8.520996-1.552307-.018921-5.105621 6.135254-6.799652-8.935669z" fill="#431b40"/><path d="m314.529266 742.492126 4.181488 3.045838.481659 6.778625-3.588897 1.656189-6.87555-1.465027z" fill="#324043"/><path d="m306.076294 753.131104 5.097565 2.051147 4.429657-1.209473-6.87555-1.465027z" fill="#2d2a3d"/><path d="m320.804962 738.158386 2.6745 7.05951-.437897 3.976074-3.848663 3.12268-.482209-6.778686z" fill="#52624f"/><path d="m303.222046 743.758667-.177612 6.093872 3.033599 3.278687-.278533-4.504334z" fill="#232134"/><path d="m329.344025 742.442932-3.246643 2.384216 2.474701-.085449z" fill="#2d4042"/><path d="m326.097382 744.827148.187072 4.226197-.943847 3.189331 1.556945.47937 5.501832-4.894837-3.826264-3.084594z" fill="#282f3f"/><path d="m329.344025 742.442932 2.865204-.343201 4.567504 4.898682-4.377533.828796-3.827056-3.085327z" fill="#445d4c"/><path d="m332.3992 747.827209 1.478974 3.523438 2.898498-4.352173z" fill="#55664f"/><path d="m332.3992 747.827209 1.478974 3.523438-1.387116 4.821167-2.304107-.091064-3.290375-3.35962z" fill="#324043"/><path d="m325.33963 752.242004 2.205689 3.153687 2.641632.685425-3.290375-3.359619z" fill="#2d2a3d"/><path d="m336.776672 746.998474-.292572 5.764465-1.195587 2.58136-2.797211.827698 1.386872-4.82135z" fill="#52624f"/><path d="m326.097382 744.827148-1.570862 4.125.813995 3.290528.943787-3.189331z" fill="#232134"/><path d="m375.130585 748.98761-3.284821 7.377258 4.024353-3.218567z" fill="#2d4042"/><path d="m371.845764 756.364868 4.01944 5.633118 1.236603 5.610107 2.999633-1.284912 4.816346-13.688049-9.045411.510925z" fill="#282f3f"/><path d="m375.130585 748.98761 4.44461-4.065918 11.865448 1.078857-6.52304 6.634583-9.047425.511169z" fill="#445d4c"/><path d="m384.917603 752.635132 5.542572 3.038757.980407-9.673279z" fill="#55664f"/><path d="m387.060181 766.015747 5.352569 9.071045-1.136413 18.340637 5.596862-.10199-.882598-17.775573 5.505798-8.521057-1.552338-.01886-5.105591 6.135254-6.799652-8.93573z" fill="#431b40"/><path d="m384.917603 752.635132 5.542572 3.038757 1.934478 8.431091-3.896087 2.76056-8.399201-.542115z" fill="#324043"/><path d="m377.09967 767.608276 6.421723 1.615174 4.977173-2.35791-8.399201-.542115z" fill="#2d2a3d"/><path d="m391.440582 746.00061 4.575623 8.369507.285766 5.081543-3.906677 4.65332-1.935058-8.43103z" fill="#52624f"/><path d="m371.845764 756.364868 1.019348 7.694763 4.236634 3.548462-1.236603-5.610107z" fill="#232134"/><path d="m402.961945 756.730774-4.005158 2.384216 3.052887-.085449z" fill="#2d4042"/><path d="m398.956787 759.11499.230927 4.226197-1.164307 3.189331 1.920654.479431 6.78714-4.894898-4.720154-3.084594z" fill="#282f3f"/><path d="m402.961945 756.730774 3.534545-.34314 5.634461 4.898621-5.400086.828796-4.72113-3.085266z" fill="#445d4c"/><path d="m406.730865 762.115051 1.824402 3.523438 3.575684-4.352234z" fill="#55664f"/><path d="m406.730865 762.115051 1.824402 3.523438-1.711151 4.821228-2.842376-.091126-4.059052-3.359558z" fill="#324043"/><path d="m398.022064 766.529846 2.720917 3.153748 3.258759.685364-4.059052-3.35962z" fill="#2d2a3d"/><path d="m412.130951 761.286255-.360962 5.764587-1.474945 2.58136-3.450684.827698 1.710846-4.821411z" fill="#52624f"/><path d="m398.956787 759.11499-1.937775 4.125 1.00409 3.290528 1.164276-3.189331z" fill="#232134"/><path d="m346.499664 745.323853-3.38443 6.332092 3.831757-2.543152z" fill="#2d4042"/><path d="m343.115234 751.655945 3.348603 5.38739.820434 5.131348 2.795838-.8974 5.117614-11.856995-8.248931-.307617z" fill="#282f3f"/><path d="m346.499664 745.323853 4.259461-3.266968 10.726166 1.970825-6.287568 5.392578-8.250732-.307617z" fill="#445d4c"/><path d="m355.197723 749.420288 4.873352 3.191895 1.414216-8.584473z" fill="#55664f"/><path d="m355.197723 749.420288 4.873352 3.191895 1.302399 7.717895-3.690491 2.143738-7.604675-1.196533z" fill="#324043"/><path d="m352.015533 762.669983-1.502441 15.6521h6.009949l-1.502564-15.722657z" fill="#431b40"/><path d="m347.282471 762.174683 5.749359 1.990661 4.651153-1.691528-7.604675-1.196533z" fill="#2d2a3d"/><path d="m361.485291 744.02771 3.706115 7.886414-.015106 4.577148-3.802368 3.838806-1.302857-7.717895z" fill="#52624f"/><path d="m343.115234 751.655945.510224 6.980835 3.658813 3.537903-.820434-5.131348z" fill="#232134"/><path d="m90.289108 757.113953-5.64711 9.900634 6.393509-3.976379z" fill="#2d4042"/><path d="m84.641998 767.014587 5.587387 8.423584 1.368851 8.023255 4.6651-1.403198 8.539108-18.539185-13.763961-.481079z" fill="#282f3f"/><path d="m90.289108 757.113953 7.107224-5.108155 17.897278 3.081543-10.491166 8.431702-13.766937-.481079z" fill="#445d4c"/><path d="m104.802444 763.519043 8.13144 4.990601 2.359726-13.422303z" fill="#55664f"/><path d="m104.802444 763.519043 8.13144 4.990601 2.173111 12.067565-6.157792 3.351807-12.688842-1.870788z" fill="#324043"/><path d="m99.492767 784.235779-2.506958 24.473022h10.027954l-2.507049-24.583313z" fill="#431b40"/><path d="m91.595291 783.461426 9.593155 3.112366 7.760757-2.644776-12.688842-1.870788z" fill="#2d2a3d"/><path d="m115.29361 755.087341 6.183929 12.330872-.02533 7.156738-6.344467 6.002258-2.173935-12.067565z" fill="#52624f"/><path d="m84.641998 767.014587.851303 10.914917 6.104935 5.531922-1.368851-8.023255z" fill="#232134"/><path d="m28.370079 746.24408-8.974709 4.463134 6.840905-.159485z" fill="#2d4042"/><path d="m19.39537 750.707214.516678 7.91156-2.60894 5.970581 4.303787.897461 15.208703-9.163269-10.576897-5.774536z" fill="#282f3f"/><path d="m28.370079 746.24408 7.920265-.642517 12.625778 9.17041-12.100524 1.551574-10.579216-5.775695z" fill="#445d4c"/><path d="m36.815598 756.323547 4.088256 6.595887 8.012268-8.147461z" fill="#55664f"/><path d="m37.330643 768.875183 7.154297 11.611633-1.518906 23.477539 7.48082-.130798-1.179657-22.75415 7.359085-10.907532-2.07486-.026489-6.824249 7.853637-9.088486-11.438476z" fill="#431b40"/><path d="m36.815598 756.323547 4.088256 6.595887-3.834457 9.025451-6.36927-.170105-9.095551-6.289245z" fill="#324043"/><path d="m17.300789 764.588135 6.097092 5.903747 7.302246 1.28302-9.095551-6.289245z" fill="#2d2a3d"/><path d="m48.916122 754.771973-.808868 10.791443-3.304947 4.832275-7.73233 1.549438 3.833801-9.025695z" fill="#52624f"/><path d="m19.39537 750.707214-4.342308 7.72229 2.250046 6.159851 2.60894-5.970581z" fill="#232134"/><path d="m58.233307 758.856628-4.884186 2.618531 3.722931-.09375z" fill="#2d4042"/><path d="m53.349121 761.475159.281204 4.641662-1.41983 3.502869 2.342224.52655 8.276795-5.376037-5.756119-3.387879z" fill="#282f3f"/><path d="m58.233307 758.856628 4.310333-.37677 6.871155 5.380127-6.585312.91034-5.757385-3.388611z" fill="#445d4c"/><path d="m62.829483 764.770203 2.22493 3.869751 4.360382-4.78003z" fill="#55664f"/><path d="m62.829483 764.770203 2.22493 3.869751-2.086777 5.295105-3.466293-.099732-4.949921-3.68988z" fill="#324043"/><path d="m52.209229 769.618958 3.31813 3.463684 3.973984.752746-4.949921-3.68988z" fill="#2d2a3d"/><path d="m69.414795 763.859924-.440201 6.331238-1.798584 2.835083-4.208084.908997 2.086426-5.295288z" fill="#52624f"/><path d="m53.349121 761.475159-2.363159 4.530578 1.224533 3.613953 1.41983-3.502869z" fill="#232134"/><g fill="#648155"><path d="m256.825378 805.828918 23.560273-5.032287 21.044159-1.143738 17.613006 1.143738 25.16153-2.287415 47.071991-5.081787 5.596862-.10199-53.812591 8.38617-12.351959 1.372436-19.900482 1.372437-31.794922 2.744873z"/><path d="m266.319824 790.825623 15.174896-5.032288 13.554322-1.143738 11.34433 1.143738 16.206268-2.287415 27.913452-5.183837h6.009949l-34.660095 8.38623-7.95578 1.372437-12.817627 1.372375-20.47876 2.744934z"/><path d="m251.359467 785.580383 12.261505-5.032348 10.952087-1.143738 9.166351 1.143738 13.033875-.275147 21.753052-.642151 5.596832-.10205-7.101196 1.675537-27.211243 1.631225-10.356903 1.372437-16.547089 2.744812z"/></g><path d="m199.47467 777.006104 9.518921-5.032288 8.50235-1.143738 7.116059 1.143738 10.118499-.275147 16.566712-.744262h4.66568l-5.512848 1.675659-21.124756 1.631164-8.040253 1.372376-12.845917 2.744873z" fill="#607c54"/><path d="m16.810539 821.212341 15.174919-5.032287 13.554291-1.143677 11.344376 1.143677 16.206222-2.287354 23.895462-5.183899h10.027954l-34.66008 8.386231-7.955749 1.372436-12.817673 1.372437-20.47876 2.744873z" fill="#425c42"/><path d="m-17.74675 804.777832 12.17543-2.909973 7.832444-.57782 13.139259 3.21167 10.887436.31366 17.711067-.981812h6.447968l-24.653939 4.184204-6.193649 1.459473-17.241791 5.813049-14.323692-3.339172z" fill="#425c42"/><path d="m431.944336 830.439148-27.61911 6.152161-31.689087 2.632629-32.335877 6.910583-37.509582.987244-44.623444 3.948975-11.640899 6.910583-48.503785-1.974487-27.399078 5.27533-23.142792 1.894653 23.712738.030273 26.829132-3.909179 46.56363 1.316284 19.401519-6.581482 43.976716-3.290833 30.395721-.987182 35.569427-7.897827h31.689118l26.247467-6.116211z" fill="#402f14"/><path d="m419.500366 838.689636 12.337158 6.580139.030274-9.529296z" fill="#94b2a8"/><path d="m405.618683 841.856628 15.274567 5.207764-1.392884-8.374756z" fill="#acccbb"/><path d="m380.100861 846.665588 25.517822-4.80896h-31.689118z" fill="#94b2a8"/><path d="m405.969269 849.457214 14.923981-2.392822-15.274567-5.207764z" fill="#8cb8a1"/><path d="m385.075562 850.254761 20.543121-8.398133-25.517822 4.80896z" fill="#87a99d"/><path d="m359.488464 850.483398 14.441101-8.62677-17.530059 3.859864z" fill="#94b2a8"/><path d="m385.075562 850.254761 20.893707-.797547-.350769-7.600586z" fill="#6d9790"/><path d="m359.488464 850.483398 20.612397-3.81781-6.171296-4.80896z" fill="#6d9790"/><path d="m359.488464 850.483398 11.458924 2.66272 9.153473-6.48053z" fill="#709993"/><path d="m344.063202 853.976685 12.336304-8.260193-18.668061 4.038208z" fill="#ccedd3"/><path d="m370.947388 853.146118 14.128174-2.891357-4.974701-3.589173z" fill="#8fafaa"/><path d="m344.063202 853.976685 15.425262-3.493287-3.088958-4.766906z" fill="#bad4c6"/><path d="m361.197052 856.336487 9.750336-3.190369-11.458924-2.66272z" fill="#668a80"/><path d="m309.731079 855.958618 13.773499-5.733337-15.540161.516418z" fill="#94b2a8"/><path d="m309.731079 855.958618 14.633362 1.268921-.859863-7.002258z" fill="#6d9790"/><path d="m344.063202 853.976685 17.13385 2.359802-1.708588-5.853089z" fill="#acccbb"/><path d="m324.364441 857.227539 13.367004-7.472839-14.226867.470581z" fill="#94b2a8"/><path d="m288.625275 852.01062 21.105804 3.947998-1.766662-5.216919z" fill="#ccedd3"/><path d="m324.364441 857.227539 19.698761-3.250854-6.331757-4.221985z" fill="#8fafaa"/><path d="m265.690277 858.144043 22.934998-6.133423-27.015442 2.185486z" fill="#d0f1d4"/><path d="m288.765991 857.439026 20.965088-1.480408-21.105804-3.947998z" fill="#8fafaa"/><path d="m343.77179 857.624634 17.425262-1.288147-17.13385-2.359802z" fill="#8cb8a1"/><path d="m324.364441 857.227539 19.407349.397095.291412-3.647949z" fill="#8fafaa"/><path d="m215.599182 860.258972-20.261597-1.057495z" fill="none"/><path d="m265.690277 858.144043 23.075714-.705017-.14096-5.428406z" fill="#b5d1c2"/><path d="m276.383942 863.290405 12.382049-5.851379-23.075714.705017z" fill="#99b9ad"/><path d="m325.082123 860.55719 18.689667-2.932556-19.407349-.397095z" fill="#8fafaa"/><path d="m261.609833 854.196106-3.236206 9.164795 7.31665-5.216858z" fill="#adcbc0"/><path d="m224.463623 863.501892 17.923737-3.077698-26.788178-.165222z" fill="#c8e4d5"/><path d="m288.765991 857.439026 16.181122 5.851379 4.783966-7.331787z" fill="#acccbb"/><path d="m242.38736 860.424194 15.986267 2.936707 3.236206-9.164795z" fill="#8daaa0"/><path d="m309.731079 855.958618 15.351044 4.598572-.717682-3.329651z" fill="#709993"/><path d="m196.463257 863.431396 19.135925-3.172424-20.261597-1.057495z" fill="#5f8892"/><path d="m304.947113 863.290405 20.13501-2.733215-15.351044-4.598572z" fill="#72978d"/><path d="m258.373627 863.360901 18.010315-.070679-10.693665-5.146362z" fill="#586d6b"/><path d="m167.477936 862.796936 28.985321.63446-1.125672-4.229919z" fill="#bfdbca"/><path d="m276.383942 863.290405h28.563171l-16.181122-5.851379z" fill="#94b2a8"/><path d="m196.463257 863.431396 28.000366.070679-8.864441-3.242859z" fill="#86a7a0"/><path d="m224.463623 863.501892 33.910004-.140991-15.986267-2.936707z" fill="#98b9b1"/><path d="m370.947388 853.146118 35.021881-3.688904-20.893707.797547z" fill="#668a80"/><path d="m419.500366 838.689636 12.337158 6.580139z" fill="none"/><path d="m420.89325 847.064392 10.944274-1.794617-12.337158-6.580139z" fill="#8cb8a1"/><path d="m304.947113 863.290405 1.302856-.202942 18.832154-2.530334 18.689667-2.932556 17.425262-1.288147 9.750336-3.19043 35.021881-3.688843 14.923981-2.392822 10.944274-1.794617-.046447 3.341309-10.073975-.45929-14.865173 3.028321-4.697144 1.36969-16.217377-.561524-13.197906 3.888123-8.778992 2.355407-19.008239 1.760071-19.546082 1.56897-14.90625 1.606018z" fill="#b4c02b"/></svg>