<svg height="864" viewBox="0 0 432 864" width="432" xmlns="http://www.w3.org/2000/svg" xmlns:xlink="http://www.w3.org/1999/xlink"><linearGradient id="a" gradientUnits="userSpaceOnUse" x1="170.825352" x2="178.271645" y1="-1.000232" y2="865.999773"><stop offset=".00001" stop-color="#152f48"/><stop offset="1" stop-color="#28557e"/></linearGradient><linearGradient id="b" gradientUnits="userSpaceOnUse" x1="-93.727324" x2="433.272682" y1="791.672098" y2="796.887394"><stop offset=".00001" stop-color="#7f8954"/><stop offset="1" stop-color="#879755"/></linearGradient><path d="m-94.399712-1h528.399712v867h-528.399712z" fill="url(#a)" stroke="#fff" stroke-linecap="round" stroke-linejoin="round" stroke-width=".377953"/><g fill="#fff" opacity=".280255"><path d="m364.998627 35.836121c0 1.15393-1.033905 2.089416-2.309357 2.089416s-2.309387-.935486-2.309387-2.089416c0-1.153931 1.033935-2.089417 2.309387-2.089417s2.309357.935486 2.309357 2.089417z"/><path d="m364.998627 41.836121c0 1.15393-1.033905 2.089416-2.309357 2.089416s-2.309387-.935486-2.309387-2.089416c0-1.153931 1.033935-2.089417 2.309387-2.089417s2.309357.935486 2.309357 2.089417z"/><path d="m393.150848 82.304871c0 1.15393-1.033905 2.089416-2.309356 2.089416-1.275391 0-2.309388-.935486-2.309388-2.089416 0-1.153931 1.033997-2.089417 2.309388-2.089417 1.275451 0 2.309356.935486 2.309356 2.089417z"/><path d="m273.063965 100.119934c0 1.153992-1.033936 2.089417-2.309357 2.089417s-2.309387-.935425-2.309387-2.089417c0-1.153931 1.033966-2.089416 2.309387-2.089416s2.309357.935485 2.309357 2.089416z"/><path d="m273.063965 100.119934c0 1.153992-1.033936 2.089417-2.309357 2.089417s-2.309387-.935425-2.309387-2.089417c0-1.153931 1.033966-2.089416 2.309387-2.089416s2.309357.935485 2.309357 2.089416z"/><path d="m366.758118 182.8172c0 1.15393-1.033905 2.089416-2.309357 2.089416s-2.309387-.935486-2.309387-2.089416c0-1.153931 1.033935-2.089417 2.309387-2.089417s2.309357.935486 2.309357 2.089417z"/><path d="m262.067017 130.471558c0 1.15393-1.033936 2.089416-2.309357 2.089416-1.275452 0-2.309387-.935486-2.309387-2.089416 0-1.153931 1.033935-2.089417 2.309387-2.089417 1.275421 0 2.309357.935486 2.309357 2.089417z"/><path d="m388.312195 170.500549c0 1.154053-1.033905 2.089417-2.309357 2.089417s-2.309387-.935364-2.309387-2.089417c0-1.15393 1.033935-2.089416 2.309387-2.089416s2.309357.935486 2.309357 2.089416z"/><path d="m251.509918 191.643738c0 1.153991-1.033935 2.089416-2.309356 2.089416-1.275422 0-2.309357-.935425-2.309357-2.089416 0-1.153931 1.033935-2.089417 2.309357-2.089417 1.275421 0 2.309356.935486 2.309356 2.089417z"/><path d="m212.360718 151.585815c0 1.153931-1.033966 2.089417-2.309387 2.089417-1.275422 0-2.309357-.935486-2.309357-2.089417 0-1.153991 1.033935-2.089416 2.309357-2.089416 1.275421 0 2.309387.935425 2.309387 2.089416z"/><path d="m202.68338 166.981567c0 1.153931-1.033935 2.089417-2.309357 2.089417-1.275421 0-2.309387-.935486-2.309387-2.089417 0-1.15393 1.033966-2.089416 2.309387-2.089416 1.275422 0 2.309357.935486 2.309357 2.089416z"/><path d="m244.471863 98.800354c0 1.153931-1.033905 2.089417-2.309326 2.089417-1.275452 0-2.309388-.935486-2.309388-2.089417 0-1.153992 1.033936-2.089416 2.309388-2.089416 1.275421 0 2.309326.935424 2.309326 2.089416z"/><path d="m151.217606 93.52179c0 1.153991-1.033951 2.089477-2.309372 2.089477s-2.309342-.935486-2.309342-2.089477c0-1.153931 1.033921-2.089417 2.309342-2.089417s2.309372.935486 2.309372 2.089417z"/><path d="m217.639221 23.581055c0 1.15393-1.033935 2.089416-2.309356 2.089416-1.275422 0-2.309357-.935486-2.309357-2.089416 0-1.153931 1.033935-2.089417 2.309357-2.089417 1.275421 0 2.309356.935486 2.309356 2.089417z"/><path d="m130.467819 60.970764c0 1.153931-1.033935 2.089417-2.309356 2.089417-1.275422 0-2.309372-.935486-2.309372-2.089417s1.03395-2.089416 2.309372-2.089416c1.275421 0 2.309356.935485 2.309356 2.089416z"/><path d="m57.684143 76.522827c0 1.153931-1.033935 2.089417-2.309357 2.089417-1.275421 0-2.309372-.935486-2.309372-2.089417s1.033951-2.089416 2.309372-2.089416c1.275422 0 2.309357.935485 2.309357 2.089416z"/><path d="m54.573715 59.104492c0 1.153931-1.033935 2.089417-2.309356 2.089417-1.275422 0-2.309372-.935486-2.309372-2.089417 0-1.15393 1.03395-2.089416 2.309372-2.089416 1.275421 0 2.309356.935486 2.309356 2.089416z"/><path d="m18.49295 169.835144c0 1.153992-1.033943 2.089417-2.309364 2.089417s-2.309364-.935425-2.309364-2.089417c0-1.153931 1.033943-2.089416 2.309364-2.089416s2.309364.935485 2.309364 2.089416z"/><path d="m18.49295 169.213074c0 1.15393-1.033943 2.089416-2.309364 2.089416s-2.309364-.935486-2.309364-2.089416c0-1.153992 1.033943-2.089417 2.309364-2.089417s2.309364.935425 2.309364 2.089417z"/><path d="m160.894867 167.861328c0 1.153931-1.03392 2.089417-2.309357 2.089417-1.275421 0-2.309372-.935486-2.309372-2.089417s1.033951-2.089416 2.309372-2.089416c1.275437 0 2.309357.935485 2.309357 2.089416z"/><path d="m160.894867 167.861328c0 1.153931-1.03392 2.089417-2.309357 2.089417-1.275421 0-2.309372-.935486-2.309372-2.089417s1.033951-2.089416 2.309372-2.089416c1.275437 0 2.309357.935485 2.309357 2.089416z"/><path d="m394.47049 51.733459c0 1.153931-1.033936 2.089417-2.309388 2.089417-1.275451 0-2.309356-.935486-2.309356-2.089417 0-1.153991 1.033905-2.089477 2.309356-2.089477 1.275452 0 2.309388.935486 2.309388 2.089477z"/><path d="m361.919403 64.929749c0 1.15393-1.033905 2.089416-2.309357 2.089416-1.275421 0-2.309387-.935486-2.309387-2.089416 0-1.153992 1.033966-2.089417 2.309387-2.089417 1.275452 0 2.309357.935425 2.309357 2.089417z"/></g><path d="m281.636902 749.018188 151.635803 17.50879v97.473022h-527.000038v-97.845703l23.901314-.186463z" fill="url(#b)"/><path d="m111.081963 770.451233 14.367691 15.019714 35.184379 17.329651 14.966477-26.519592-29.300614-7.685608z" fill="#6c7d53"/><path d="m-69.826706 766.282776 8.169266 23.765076 18.937832-2.970643 7.055282 10.768616 29.716261-19.722107 9.273396.412903-7.79794 20.051819 4.08464 5.570007 28.221072-4.455993 10.02591-5.19867 46.35165-26.784851-69.3741-27.800598-63.890667 20.348022z" fill="#506850"/><path d="m-26.805822 752.869934 13.095227-24.685059 33.672803-53.72229 43.774631-46.462585 16.836388 53.722351 17.317444 28.555115 12.811546 60.170471-115.041343.991882z" fill="#320d40"/><path d="m114.447105 669.094238 19.782982 18.930237 17.565949 74.015686-37.348931-38.372192-16.212066-13.18628-17.365273-28.459716-16.882885-53.542969z" fill="none"/><path d="m151.796036 762.040161-5.49614 6.555237-23.472763 4.543152-11.74517-2.687317-12.846924-59.969544 16.212066 13.18628z" fill="#4b1b43"/><path d="m114.447105 669.094238 15.860497-23.534973 22.341156 47.922608 23.70546 20.635742-7.338746 30.247802-11.357772 9.086243-5.861664 8.588501-17.565949-74.015686z" fill="#662044"/><path d="m135.679703 656.815186 19.697723-10.062073 15.007767 6.310119-27.116303 20.294495z" fill="none"/><path d="m170.385193 653.063232-8.697647 48.263611-9.038788-7.84497-9.379868-20.124146z" fill="#391342"/><path d="m176.354218 714.117615 9.038772-9.03888-15.007797-52.015503-8.697647 48.263611z" fill="#4d1b41"/><path d="m170.385193 653.063232 25.240341 33.937989-10.232544 18.077514z" fill="#5f2141"/><path d="m195.625534 687.001221 17.054337 2.131836-27.286881 15.945678z" fill="#381444"/><path d="m212.679871 689.133057 22.967987 38.57434-26.501526 11.357789-23.753342-33.986451z" fill="#3c1742"/><path d="m176.354218 714.117615 9.038772-9.03888 23.753342 33.986451-8.329025 9.843322z" fill="#632244"/><path d="m169.015472 744.365417 7.338746-30.247802 24.463089 34.790893z" fill="#571d43"/><path d="m151.796036 762.040161 23.804474 14.240845-29.300614-7.685608z" fill="#7a8953"/><path d="m180.458038 762.889954 13.391114-.656433 6.968155-13.325013-31.801835-4.543091z" fill="#8c9552"/><path d="m180.458038 762.889954.262497 7.877075-5.120117 5.513977-23.804504-14.240845 5.861664-8.588501 11.357803-9.086243z" fill="#9a9e54"/><path d="m180.458038 762.889954 13.391114-.656433 18.5112-4.201111 11.027923 5.907837 12.078217 4.069824h-15.22905l-30.458115 7.614502-9.058792-4.857544z" fill="#607c54"/><path d="m200.817307 748.908508 11.543045 9.123902-18.5112 4.201111z" fill="#748455"/><path d="m209.146332 739.065186 19.493301 24.087341 6.826859 4.857544-12.078217-4.069824-11.027923-5.907837-11.543045-9.123902z" fill="#9d9f54"/><path d="m209.146332 739.065186 26.501526-11.357789-4.776337 8.269104-2.231888 27.176026z" fill="#677d53"/><path d="m220.237442 768.010071-6.432983 18.248596-24.025132-10.634094z" fill="#738458"/><path d="m180.720535 770.767029 9.058792 4.857544 24.025132 10.634094-8.533493 10.371521-29.670456-20.349182z" fill="#979b58"/><path d="m175.600388 776.281006 29.670578 20.349182-15.22905 15.360352-29.407883-9.189942z" fill="#7f8e57"/><path d="m235.647858 727.707397 9.227676 16.945374 8.911926 19.03064 1.76381 6.683899-20.084778-2.357239-6.826859-4.857544 2.231888-27.176026z" fill="#7b8956"/><path d="m235.647858 727.707397 27.258697 9.843323 13.629364 9.086304 5.101288 2.750183-.092682 23.20813-25.993133-2.228027-1.76381-6.683899z" fill="#989b56"/><path d="m63.986881 628.479004 16.882885 53.542969 17.365273 28.459716 53.560997 51.558472-17.565949-74.015686-19.782982-18.930237z" fill="#3b1641"/><path d="m245.939484 737.956299-3.3844 6.332031 3.831757-2.543152z" fill="#2d4042"/><path d="m242.555084 744.28833 3.348603 5.38739.820404 5.131409 2.795867-.897461 5.117646-11.856934-8.248993-.307678z" fill="#282f3f"/><path d="m245.939484 737.956299 4.259491-3.267029 10.726135 1.970764-6.287506 5.3927-8.250763-.307678z" fill="#445d4c"/><path d="m254.637604 742.052734 4.873321 3.191773 1.414185-8.584412z" fill="#55664f"/><path d="m254.637604 742.052734 4.873321 3.191773 1.302368 7.718017-3.69049 2.143677-7.604645-1.196533z" fill="#324043"/><path d="m251.455383 755.302368-1.502472 15.652039h6.00998l-1.502503-15.722534z" fill="#431b40"/><path d="m246.722321 754.807129 5.749328 1.990539 4.651154-1.691467-7.604645-1.196533z" fill="#2d2a3d"/><path d="m260.92511 736.660095 3.706146 7.886353-.015106 4.577209-3.802368 3.838867-1.302857-7.718017z" fill="#52624f"/><path d="m242.555084 744.28833.510193 6.980774 3.658814 3.538025-.820404-5.131409z" fill="#232134"/><path d="m306.917725 738.446289-3.695679 5.312378 3.755707-1.995422z" fill="#2d4042"/><path d="m303.222046 743.758667 2.577454 4.868225.278533 4.504334 2.651612-.623352 5.799682-10.015748-7.549774-.72882z" fill="#282f3f"/><path d="m306.917725 738.446289 4.215759-2.60022 9.671539 2.312317-6.275757 4.33374-7.551452-.728881z" fill="#445d4c"/><path d="m314.529266 742.492126 4.181488 3.045838 2.094208-7.379578z" fill="#55664f"/><path d="m314.310181 752.219116 5.352539 9.071045-1.136383 18.340637 5.596832-.102111-.882599-17.775513 5.505798-8.520996-1.552307-.018921-5.105621 6.135254-6.799652-8.935669z" fill="#431b40"/><path d="m314.529266 742.492126 4.181488 3.045838.481659 6.778625-3.588897 1.656189-6.87555-1.465027z" fill="#324043"/><path d="m306.076294 753.131104 5.097565 2.051147 4.429657-1.209473-6.87555-1.465027z" fill="#2d2a3d"/><path d="m320.804962 738.158386 2.6745 7.05951-.437897 3.976074-3.848663 3.12268-.482209-6.778686z" fill="#52624f"/><path d="m303.222046 743.758667-.177612 6.093872 3.033599 3.278687-.278533-4.504334z" fill="#232134"/><path d="m329.344025 742.442932-3.246643 2.384216 2.474701-.085449z" fill="#2d4042"/><path d="m326.097382 744.827148.187072 4.226197-.943847 3.189331 1.556945.47937 5.501832-4.894837-3.826264-3.084594z" fill="#282f3f"/><path d="m329.344025 742.442932 2.865204-.343201 4.567504 4.898682-4.377533.828796-3.827056-3.085327z" fill="#445d4c"/><path d="m332.3992 747.827209 1.478974 3.523438 2.898498-4.352173z" fill="#55664f"/><path d="m332.3992 747.827209 1.478974 3.523438-1.387116 4.821167-2.304107-.091064-3.290375-3.35962z" fill="#324043"/><path d="m325.33963 752.242004 2.205689 3.153687 2.641632.685425-3.290375-3.359619z" fill="#2d2a3d"/><path d="m336.776672 746.998474-.292572 5.764465-1.195587 2.58136-2.797211.827698 1.386872-4.82135z" fill="#52624f"/><path d="m326.097382 744.827148-1.570862 4.125.813995 3.290528.943787-3.189331z" fill="#232134"/><path d="m375.130585 748.98761-3.284821 7.377258 4.024353-3.218567z" fill="#2d4042"/><path d="m371.845764 756.364868 4.01944 5.633118 1.236603 5.610107 2.999633-1.284912 4.816346-13.688049-9.045411.510925z" fill="#282f3f"/><path d="m375.130585 748.98761 4.44461-4.065918 11.865448 1.078857-6.52304 6.634583-9.047425.511169z" fill="#445d4c"/><path d="m384.917603 752.635132 5.542572 3.038757.980407-9.673279z" fill="#55664f"/><path d="m387.060181 766.015747 5.352569 9.071045-1.136413 18.340637 5.596862-.10199-.882598-17.775573 5.505798-8.521057-1.552338-.01886-5.105591 6.135254-6.799652-8.93573z" fill="#431b40"/><path d="m384.917603 752.635132 5.542572 3.038757 1.934478 8.431091-3.896087 2.76056-8.399201-.542115z" fill="#324043"/><path d="m377.09967 767.608276 6.421723 1.615174 4.977173-2.35791-8.399201-.542115z" fill="#2d2a3d"/><path d="m391.440582 746.00061 4.575623 8.369507.285766 5.081543-3.906677 4.65332-1.935058-8.43103z" fill="#52624f"/><path d="m371.845764 756.364868 1.019348 7.694763 4.236634 3.548462-1.236603-5.610107z" fill="#232134"/><path d="m402.961945 756.730774-4.005158 2.384216 3.052887-.085449z" fill="#2d4042"/><path d="m398.956787 759.11499.230927 4.226197-1.164307 3.189331 1.920654.479431 6.78714-4.894898-4.720154-3.084594z" fill="#282f3f"/><path d="m402.961945 756.730774 3.534545-.34314 5.634461 4.898621-5.400086.828796-4.72113-3.085266z" fill="#445d4c"/><path d="m406.730865 762.115051 1.824402 3.523438 3.575684-4.352234z" fill="#55664f"/><path d="m406.730865 762.115051 1.824402 3.523438-1.711151 4.821228-2.842376-.091126-4.059052-3.359558z" fill="#324043"/><path d="m398.022064 766.529846 2.720917 3.153748 3.258759.685364-4.059052-3.35962z" fill="#2d2a3d"/><path d="m412.130951 761.286255-.360962 5.764587-1.474945 2.58136-3.450684.827698 1.710846-4.821411z" fill="#52624f"/><path d="m398.956787 759.11499-1.937775 4.125 1.00409 3.290528 1.164276-3.189331z" fill="#232134"/><path d="m346.499664 745.323853-3.38443 6.332092 3.831757-2.543152z" fill="#2d4042"/><path d="m343.115234 751.655945 3.348603 5.38739.820434 5.131348 2.795838-.8974 5.117614-11.856995-8.248931-.307617z" fill="#282f3f"/><path d="m346.499664 745.323853 4.259461-3.266968 10.726166 1.970825-6.287568 5.392578-8.250732-.307617z" fill="#445d4c"/><path d="m355.197723 749.420288 4.873352 3.191895 1.414216-8.584473z" fill="#55664f"/><path d="m355.197723 749.420288 4.873352 3.191895 1.302399 7.717895-3.690491 2.143738-7.604675-1.196533z" fill="#324043"/><path d="m352.015533 762.669983-1.502441 15.6521h6.009949l-1.502564-15.722657z" fill="#431b40"/><path d="m347.282471 762.174683 5.749359 1.990661 4.651153-1.691528-7.604675-1.196533z" fill="#2d2a3d"/><path d="m361.485291 744.02771 3.706115 7.886414-.015106 4.577148-3.802368 3.838806-1.302857-7.717895z" fill="#52624f"/><path d="m343.115234 751.655945.510224 6.980835 3.658813 3.537903-.820434-5.131348z" fill="#232134"/><path d="m90.289108 757.113953-5.64711 9.900634 6.393509-3.976379z" fill="#2d4042"/><path d="m84.641998 767.014587 5.587387 8.423584 1.368851 8.023255 4.6651-1.403198 8.539108-18.539185-13.763961-.481079z" fill="#282f3f"/><path d="m90.289108 757.113953 7.107224-5.108155 17.897278 3.081543-10.491166 8.431702-13.766937-.481079z" fill="#445d4c"/><path d="m104.802444 763.519043 8.13144 4.990601 2.359726-13.422303z" fill="#55664f"/><path d="m104.802444 763.519043 8.13144 4.990601 2.173111 12.067565-6.157792 3.351807-12.688842-1.870788z" fill="#324043"/><path d="m99.492767 784.235779-2.506958 24.473022h10.027954l-2.507049-24.583313z" fill="#431b40"/><path d="m91.595291 783.461426 9.593155 3.112366 7.760757-2.644776-12.688842-1.870788z" fill="#2d2a3d"/><path d="m115.29361 755.087341 6.183929 12.330872-.02533 7.156738-6.344467 6.002258-2.173935-12.067565z" fill="#52624f"/><path d="m84.641998 767.014587.851303 10.914917 6.104935 5.531922-1.368851-8.023255z" fill="#232134"/><path d="m28.370079 746.24408-8.974709 4.463134 6.840905-.159485z" fill="#2d4042"/><path d="m19.39537 750.707214.516678 7.91156-2.60894 5.970581 4.303787.897461 15.208703-9.163269-10.576897-5.774536z" fill="#282f3f"/><path d="m28.370079 746.24408 7.920265-.642517 12.625778 9.17041-12.100524 1.551574-10.579216-5.775695z" fill="#445d4c"/><path d="m36.815598 756.323547 4.088256 6.595887 8.012268-8.147461z" fill="#55664f"/><path d="m37.330643 768.875183 7.154297 11.611633-1.518906 23.477539 7.48082-.130798-1.179657-22.75415 7.359085-10.907532-2.07486-.026489-6.824249 7.853637-9.088486-11.438476z" fill="#431b40"/><path d="m36.815598 756.323547 4.088256 6.595887-3.834457 9.025451-6.36927-.170105-9.095551-6.289245z" fill="#324043"/><path d="m17.300789 764.588135 6.097092 5.903747 7.302246 1.28302-9.095551-6.289245z" fill="#2d2a3d"/><path d="m48.916122 754.771973-.808868 10.791443-3.304947 4.832275-7.73233 1.549438 3.833801-9.025695z" fill="#52624f"/><path d="m19.39537 750.707214-4.342308 7.72229 2.250046 6.159851 2.60894-5.970581z" fill="#232134"/><path d="m58.233307 758.856628-4.884186 2.618531 3.722931-.09375z" fill="#2d4042"/><path d="m53.349121 761.475159.281204 4.641662-1.41983 3.502869 2.342224.52655 8.276795-5.376037-5.756119-3.387879z" fill="#282f3f"/><path d="m58.233307 758.856628 4.310333-.37677 6.871155 5.380127-6.585312.91034-5.757385-3.388611z" fill="#445d4c"/><path d="m62.829483 764.770203 2.22493 3.869751 4.360382-4.78003z" fill="#55664f"/><path d="m62.829483 764.770203 2.22493 3.869751-2.086777 5.295105-3.466293-.099732-4.949921-3.68988z" fill="#324043"/><path d="m52.209229 769.618958 3.31813 3.463684 3.973984.752746-4.949921-3.68988z" fill="#2d2a3d"/><path d="m69.414795 763.859924-.440201 6.331238-1.798584 2.835083-4.208084.908997 2.086426-5.295288z" fill="#52624f"/><path d="m53.349121 761.475159-2.363159 4.530578 1.224533 3.613953 1.41983-3.502869z" fill="#232134"/><g fill="#648155"><path d="m256.825378 805.828918 23.560273-5.032287 21.044159-1.143738 17.613006 1.143738 25.16153-2.287415 47.071991-5.081787 5.596862-.10199-53.812591 8.38617-12.351959 1.372436-19.900482 1.372437-31.794922 2.744873z"/><path d="m266.319824 790.825623 15.174896-5.032288 13.554322-1.143738 11.34433 1.143738 16.206268-2.287415 27.913452-5.183837h6.009949l-34.660095 8.38623-7.95578 1.372437-12.817627 1.372375-20.47876 2.744934z"/><path d="m251.359467 785.580383 12.261505-5.032348 10.952087-1.143738 9.166351 1.143738 13.033875-.275147 21.753052-.642151 5.596832-.10205-7.101196 1.675537-27.211243 1.631225-10.356903 1.372437-16.547089 2.744812z"/></g><path d="m199.47467 777.006104 9.518921-5.032288 8.50235-1.143738 7.116059 1.143738 10.118499-.275147 16.566712-.744262h4.66568l-5.512848 1.675659-21.124756 1.631164-8.040253 1.372376-12.845917 2.744873z" fill="#607c54"/><path d="m16.810539 821.212341 15.174919-5.032287 13.554291-1.143677 11.344376 1.143677 16.206222-2.287354 23.895462-5.183899h10.027954l-34.66008 8.386231-7.955749 1.372436-12.817673 1.372437-20.47876 2.744873z" fill="#425c42"/><path d="m-17.74675 804.777832 12.17543-2.909973 7.832444-.57782 13.139259 3.21167 10.887436.31366 17.711067-.981812h6.447968l-24.653939 4.184204-6.193649 1.459473-17.241791 5.813049-14.323692-3.339172z" fill="#425c42"/></svg>